<svg width="47" height="47" viewBox="0 0 47 47" fill="none" xmlns="http://www.w3.org/2000/svg">
<circle cx="23.0104" cy="23.0104" r="23.0104" fill="#01C2F1"/>
<path d="M31.046 11.3633C30.3866 10.7038 29.3174 10.7038 28.6577 11.3633L19.3095 20.7112L16.7162 18.1182C16.0568 17.4588 14.9875 17.4589 14.3281 18.1183L9.55176 22.8946C8.89225 23.554 8.89225 24.6234 9.55176 25.2829L18.1155 33.8466C18.7745 34.5057 19.8444 34.5062 20.5038 33.8466L35.8225 18.5279C36.4816 17.869 36.4819 16.799 35.8225 16.1396L31.046 11.3633ZM19.3095 30.2643L13.1341 24.0887L15.5222 21.7006L18.1154 24.2936C18.7748 24.953 19.8441 24.9529 20.5035 24.2935L29.8518 14.9456L32.2399 17.3337L19.3095 30.2643Z" fill="white"/>
</svg>
