<svg width="60" height="60" viewBox="0 0 60 60" fill="none" xmlns="http://www.w3.org/2000/svg">
<circle cx="30" cy="30" r="30" fill="#01C2F1"/>
<path d="M43.8845 28.579L40.8984 25.593V15.8789C40.8984 15.3935 40.5049 15 40.0195 15H19.9805C19.4951 15 19.1016 15.3935 19.1016 15.8789V25.593L16.1156 28.579C15.3962 29.2984 15 30.2548 15 31.2721V42.3633C15 43.8172 16.1828 45 17.6367 45H42.3633C43.8172 45 45 43.8172 45 42.3633V31.2721C45 30.2548 44.6038 29.2983 43.8845 28.579ZM42.6415 29.822C42.6495 29.8299 42.6572 29.8379 42.665 29.8458L40.8984 30.7987V28.0789L42.6415 29.822ZM39.1406 16.7578V31.7468L30 36.6772L20.8594 31.7468V16.7578H39.1406ZM19.1016 28.0789V30.7986L17.3351 29.8458C17.3428 29.8378 17.3506 29.8299 17.3585 29.822L19.1016 28.0789ZM42.3633 43.2422H17.6367C17.1521 43.2422 16.7578 42.8479 16.7578 42.3633V31.5318L29.5828 38.4494C29.8432 38.5898 30.1568 38.5898 30.4172 38.4494L43.2422 31.5318V42.3633C43.2422 42.8479 42.8479 43.2422 42.3633 43.2422Z" fill="white"/>
<path d="M25.539 31.7318C26.7656 32.6874 28.2935 33.2373 29.8412 33.2801C29.8495 33.2803 29.8578 33.2804 29.866 33.2804C30.34 33.2804 30.7309 32.9028 30.7441 32.4259C30.7575 31.9406 30.375 31.5363 29.8898 31.523C27.4363 31.4551 25.2859 29.7462 24.6602 27.3672C23.9067 24.5022 25.5293 21.5537 28.3542 20.6544C29.7874 20.1983 31.3087 20.3325 32.638 21.0326C33.9635 21.7306 34.933 22.9033 35.3691 24.3356C35.6432 25.3741 35.5518 26.3416 35.0642 27.5676C34.9366 27.8885 34.5419 28.6348 33.6356 28.6348C33.4947 28.6348 33.3808 28.5415 33.3255 28.4859C33.1842 28.3439 33.1005 28.1339 33.1015 27.9246L33.1295 22.8567C33.1322 22.3713 32.7409 21.9757 32.2555 21.973H32.2505C31.9351 21.973 31.6582 22.1393 31.5032 22.3893C30.9877 22.0345 30.3851 21.8455 29.7437 21.8455C28.8052 21.8455 27.8853 22.2681 27.2198 23.005C26.5414 23.7563 26.1678 24.78 26.1678 25.8877C26.1678 26.9926 26.5196 28.0297 27.1586 28.8076C27.8159 29.608 28.7332 30.067 29.6752 30.067C30.447 30.067 31.1518 29.7715 31.7197 29.2662C31.8211 29.4325 31.9416 29.5872 32.0796 29.7258C32.5074 30.1558 33.06 30.3926 33.6357 30.3926C35.2554 30.3926 36.2794 29.2688 36.6977 28.2172C37.3296 26.6284 37.4425 25.2873 37.064 23.8687C37.0616 23.8596 37.059 23.8504 37.0562 23.8413C36.4849 21.9485 35.2068 20.3987 33.4572 19.4773C31.708 18.5561 29.7065 18.3794 27.8212 18.9795C26.0344 19.5482 24.5481 20.7742 23.6359 22.4316C22.7233 24.0895 22.4834 26.0012 22.9603 27.8144C23.3731 29.3845 24.2649 30.7392 25.539 31.7318ZM29.6751 28.3092C28.8302 28.3092 27.9256 27.3362 27.9256 25.8877C27.9256 24.4578 28.8499 23.6033 29.7436 23.6033C30.6931 23.6033 31.3562 24.5346 31.3562 25.868C31.3562 27.2141 30.602 28.3092 29.6751 28.3092Z" fill="white"/>
</svg>
