<svg width="60" height="60" viewBox="0 0 60 60" fill="none" xmlns="http://www.w3.org/2000/svg">
<circle cx="30" cy="30" r="30" fill="#01C2F1"/>
<g clip-path="url(#clip0_2_107)">
<path d="M35.8595 25.5469C35.8595 22.316 33.231 19.6875 30.0001 19.6875C26.7693 19.6875 24.1407 22.316 24.1407 25.5469C24.1407 28.7777 26.7693 31.4062 30.0001 31.4062C33.231 31.4062 35.8595 28.7777 35.8595 25.5469ZM26.4845 25.5469C26.4845 23.6084 28.0616 22.0312 30.0001 22.0312C31.9386 22.0312 33.5157 23.6084 33.5157 25.5469C33.5157 27.4854 31.9386 29.0625 30.0001 29.0625C28.0616 29.0625 26.4845 27.4854 26.4845 25.5469Z" fill="white"/>
<path d="M29.2284 41.6631L30.0001 42.3384L30.7718 41.6631C31.1709 41.3139 40.547 33.0239 40.547 25.5469C40.547 19.7313 35.8157 15 30.0001 15C24.1846 15 19.4532 19.7313 19.4532 25.5469C19.4532 33.0239 28.8293 41.3139 29.2284 41.6631ZM30.0001 17.3438C34.5233 17.3438 38.2033 21.0237 38.2033 25.5469C38.2033 30.8295 32.1759 37.0931 29.9997 39.1822C27.8224 37.0946 21.797 30.8379 21.797 25.5469C21.797 21.0237 25.4769 17.3438 30.0001 17.3438Z" fill="white"/>
<path d="M41.5932 38.0738C40.9576 37.5958 40.0768 37.1719 38.9753 36.814L38.2509 39.0429C39.9314 39.5891 40.4682 40.1358 40.5423 40.3121C40.4629 40.4938 39.8147 41.1614 37.6437 41.7641C35.5717 42.3394 32.8572 42.6561 30 42.6561C27.1429 42.6561 24.4283 42.3394 22.3563 41.7641C20.1852 41.1614 19.5371 40.4938 19.4576 40.3121C19.5317 40.1358 20.0687 39.5891 21.7491 39.0429L21.0247 36.814C19.9232 37.172 19.0423 37.5958 18.4068 38.0738C17.3344 38.8803 17.1094 39.7363 17.1094 40.3124C17.1094 40.9149 17.3548 41.8073 18.5242 42.6367C19.2186 43.1291 20.1783 43.5612 21.3768 43.9207C23.6965 44.6166 26.7589 44.9999 30 44.9999C33.2411 44.9999 36.3035 44.6166 38.6231 43.9207C39.8217 43.5612 40.7814 43.1291 41.4758 42.6367C42.6452 41.8073 42.8906 40.9149 42.8906 40.3124C42.8906 39.7363 42.6655 38.8803 41.5932 38.0738Z" fill="white"/>
</g>
<defs>
<clipPath id="clip0_2_107">
<rect width="30" height="30" fill="white" transform="translate(15 15)"/>
</clipPath>
</defs>
</svg>
