<svg width="60" height="60" viewBox="0 0 60 60" fill="none" xmlns="http://www.w3.org/2000/svg">
<circle cx="30" cy="30" r="30" fill="#01C2F1"/>
<path d="M41.5569 37.6348L37.1806 33.2585C36.2697 32.3476 34.7927 32.3466 33.8807 33.2585L32.6062 34.533C29.6941 32.7546 27.2475 30.308 25.4691 27.3958L26.8665 25.9984C27.7762 25.0886 27.7762 23.6083 26.8664 22.6985L22.4902 18.3222C21.5818 17.4139 20.107 17.4055 19.1875 18.325L16.4375 21.0964C15.1218 22.2012 14.659 24.0152 15.259 25.7344C18.3381 34.558 25.4442 41.664 34.2677 44.7432C35.9278 45.3224 37.6325 44.8892 38.7164 43.7725C38.7321 43.7586 38.7474 43.7444 38.7623 43.7294L41.5569 40.9347C42.4667 40.025 42.4667 38.5447 41.5569 37.6348ZM40.1628 39.5407L37.4314 42.2721C37.3981 42.2997 37.3666 42.3298 37.3369 42.362C36.762 42.987 35.8371 43.2027 34.9174 42.8816C26.6563 39.9989 20.0034 33.3458 17.1206 25.0847C16.7905 24.1388 17.0286 23.1589 17.7273 22.5881C17.7538 22.5664 17.7793 22.5433 17.8034 22.519L20.5844 19.7163C20.6766 19.624 20.7844 19.6103 20.8403 19.6103C20.8963 19.6103 21.004 19.624 21.0962 19.7163L25.4723 24.0925C25.6134 24.2336 25.6134 24.4632 25.4724 24.6043L23.5361 26.5405C23.2232 26.8535 23.1571 27.3365 23.3745 27.7219C25.4757 31.447 28.5551 34.5265 32.2802 36.6276C32.6656 36.845 33.1486 36.7789 33.4616 36.466L35.2749 34.6527C35.4161 34.5115 35.6452 34.5113 35.7866 34.6527L40.1629 39.0289C40.3039 39.17 40.3039 39.3996 40.1628 39.5407Z" fill="white"/>
<path d="M30.7572 22.6948C30.2127 22.6948 29.7714 23.1362 29.7714 23.6806C29.7714 24.2251 30.2127 24.6664 30.7572 24.6664C33.2819 24.6664 35.336 26.7205 35.336 29.2453C35.336 29.7897 35.7773 30.2311 36.3218 30.2311C36.8662 30.2311 37.3076 29.7897 37.3076 29.2453C37.3076 25.6334 34.369 22.6948 30.7572 22.6948Z" fill="white"/>
<path d="M30.7572 18.8262C30.2127 18.8262 29.7714 19.2675 29.7714 19.812C29.7714 20.3564 30.2127 20.7978 30.7572 20.7978C35.4154 20.7978 39.2051 24.5875 39.2051 29.2457C39.2051 29.7902 39.6465 30.2315 40.1909 30.2315C40.7353 30.2315 41.1767 29.7902 41.1767 29.2457C41.1767 23.5004 36.5025 18.8262 30.7572 18.8262Z" fill="white"/>
<path d="M40.8301 19.1718C38.1396 16.4812 34.5622 14.9995 30.7572 14.9995C30.2127 14.9995 29.7714 15.4409 29.7714 15.9853C29.7714 16.5298 30.2127 16.9711 30.7572 16.9711C37.5249 16.9711 43.0308 22.477 43.0308 29.2447C43.0308 29.7892 43.4722 30.2305 44.0166 30.2305C44.561 30.2305 45.0024 29.7892 45.0024 29.2447C45.0023 25.4397 43.5206 21.8624 40.8301 19.1718Z" fill="white"/>
</svg>
