<svg width="44" height="44" viewBox="0 0 44 44" fill="none" xmlns="http://www.w3.org/2000/svg">
<rect width="43.8031" height="43.8031" rx="21.9016" fill="#01C2F1"/>
<path d="M23.1985 15.5006C23.1985 15.7512 23.1985 16.5681 23.1985 17.7287H27.1889L26.7562 21.2858H23.1985C23.1985 26.7716 23.1985 34.1227 23.1985 34.1227H18.4763C18.4763 34.1227 18.4763 26.8689 18.4763 21.2858H16.0157V17.7287H18.4763C18.4763 16.3181 18.4763 15.315 18.4763 15.0357C18.4763 13.705 18.376 13.0736 18.9415 12.0425C19.5072 11.0114 21.1028 9.64843 23.8627 9.68125C26.6232 9.71525 27.7868 9.98082 27.7868 9.98082L27.1889 13.7718C27.1889 13.7718 25.4261 13.3064 24.5609 13.4723C23.6968 13.6382 23.1985 14.1705 23.1985 15.5006Z" fill="white"/>
</svg>
