<svg width="80" height="80" viewBox="0 0 80 80" fill="none" xmlns="http://www.w3.org/2000/svg">
<rect width="79.5314" height="79.5314" rx="39.7657" fill="#01C2F1"/>
<path d="M56.8793 39.7656H46.6112L43.1884 44.8997H36.343L32.9203 39.7656H22.6522" stroke="white" stroke-width="3.42271" stroke-linecap="round" stroke-linejoin="round"/>
<path d="M28.5563 27.9743L22.6522 39.7656V50.0337C22.6522 50.9415 23.0128 51.812 23.6546 52.4539C24.2965 53.0958 25.1671 53.4564 26.0749 53.4564H53.4566C54.3643 53.4564 55.2349 53.0958 55.8768 52.4539C56.5187 51.812 56.8793 50.9415 56.8793 50.0337V39.7656L50.9751 27.9743C50.6917 27.4041 50.2549 26.9242 49.7138 26.5886C49.1726 26.253 48.5485 26.075 47.9118 26.0747H31.6197C30.9829 26.075 30.3589 26.253 29.8177 26.5886C29.2765 26.9242 28.8397 27.4041 28.5563 27.9743V27.9743Z" stroke="white" stroke-width="3.42271" stroke-linecap="round" stroke-linejoin="round"/>
</svg>
