<svg width="44" height="44" viewBox="0 0 44 44" fill="none" xmlns="http://www.w3.org/2000/svg">
<rect width="43.8031" height="43.8031" rx="21.9016" fill="url(#paint0_linear_2_52)"/>
<rect width="43.8031" height="43.8031" rx="21.9016" fill="#01C2F1"/>
<path d="M26.4911 10.9512H17.3143C13.3282 10.9512 10.9519 13.3275 10.9519 17.3136V26.4794C10.9519 30.4764 13.3282 32.8527 17.3143 32.8527H26.4801C30.4662 32.8527 32.8425 30.4764 32.8425 26.4903V17.3136C32.8535 13.3275 30.4771 10.9512 26.4911 10.9512ZM21.9027 26.1509C19.5592 26.1509 17.6538 24.2454 17.6538 21.902C17.6538 19.5585 19.5592 17.653 21.9027 17.653C24.2462 17.653 26.1516 19.5585 26.1516 21.902C26.1516 24.2454 24.2462 26.1509 21.9027 26.1509ZM28.3855 16.2952C28.3308 16.4266 28.2541 16.547 28.1556 16.6565C28.0461 16.7551 27.9256 16.8317 27.7942 16.8865C27.6628 16.9412 27.5204 16.9741 27.3781 16.9741C27.0824 16.9741 26.8086 16.8646 26.6006 16.6565C26.502 16.547 26.4254 16.4266 26.3706 16.2952C26.3158 16.1637 26.283 16.0214 26.283 15.879C26.283 15.7367 26.3158 15.5943 26.3706 15.4629C26.4254 15.3205 26.502 15.211 26.6006 15.1015C26.8524 14.8496 27.2357 14.7292 27.5861 14.8058C27.6628 14.8168 27.7285 14.8387 27.7942 14.8716C27.8599 14.8935 27.9256 14.9263 27.9913 14.9701C28.0461 15.003 28.1008 15.0577 28.1556 15.1015C28.2541 15.211 28.3308 15.3205 28.3855 15.4629C28.4403 15.5943 28.4732 15.7367 28.4732 15.879C28.4732 16.0214 28.4403 16.1637 28.3855 16.2952Z" fill="white"/>
<defs>
<linearGradient id="paint0_linear_2_52" x1="0" y1="21.9016" x2="43.8031" y2="21.9016" gradientUnits="userSpaceOnUse">
<stop stop-color="white"/>
<stop offset="1" stop-color="#999999"/>
</linearGradient>
</defs>
</svg>
