<svg width="101" height="100" viewBox="0 0 101 100" fill="none" xmlns="http://www.w3.org/2000/svg">
<ellipse cx="50.0404" cy="50" rx="50.0404" ry="50" fill="#01C2F1"/>
<path d="M25.5488 24.25H74.5957C75.3129 24.25 75.8945 24.8316 75.8945 25.5488V74.4512C75.8944 75.1687 75.3128 75.75 74.5957 75.75H25.5488C24.8317 75.75 24.2502 75.1687 24.25 74.4512V25.5488C24.25 24.8316 24.8316 24.25 25.5488 24.25ZM26.8477 73.1523H73.2969V33.792H45.9658C45.4126 33.7918 44.9209 33.4413 44.7393 32.9189L42.6904 27.0156L42.6328 26.8477H26.8477V73.1523ZM45.4971 27.1797L46.832 31.0264L46.8896 31.1943H73.2969V26.8477H45.3818L45.4971 27.1797Z" fill="white" stroke="#01C2F1" stroke-width="0.5"/>
<path d="M35.4443 29.0601H39.8848C40.6019 29.0602 41.1836 29.6417 41.1836 30.3589C41.1836 31.076 40.6019 31.6575 39.8848 31.6577H35.4443C34.7268 31.6575 34.1455 31.076 34.1455 30.3589C34.1455 29.6418 34.7268 29.0602 35.4443 29.0601Z" fill="white" stroke="#01C2F1" stroke-width="0.5"/>
<path d="M31.947 36.0273H68.197C68.9143 36.0273 69.4958 36.6089 69.4958 37.3262V57.6748C69.4958 58.3922 68.9142 58.9746 68.197 58.9746H31.947C31.2298 58.9746 30.6482 58.3922 30.6482 57.6748V37.3262C30.6482 36.6089 31.2298 36.0273 31.947 36.0273ZM33.2458 56.376H66.8982V38.625H33.2458V56.376Z" fill="white" stroke="#01C2F1" stroke-width="0.5"/>
<path d="M31.947 61.8835H42.2244C42.9417 61.8835 43.5232 62.4652 43.5232 63.1824C43.5232 63.8995 42.9417 64.4812 42.2244 64.4812H31.947C31.2298 64.4812 30.6482 63.8996 30.6482 63.1824C30.6482 62.4651 31.2298 61.8835 31.947 61.8835Z" fill="white" stroke="#01C2F1" stroke-width="0.5"/>
<path d="M31.947 67.2874H68.197C68.9143 67.2874 69.4958 67.8689 69.4958 68.5862C69.4958 69.3034 68.9143 69.885 68.197 69.885H31.947C31.2298 69.885 30.6482 69.3034 30.6482 68.5862C30.6482 67.8689 31.2298 67.2874 31.947 67.2874Z" fill="white" stroke="#01C2F1" stroke-width="0.5"/>
<path d="M51.8359 41.8989C53.3738 40.3611 55.8635 40.3611 57.4014 41.8989C58.9392 43.4372 58.9392 45.9265 57.4014 47.4644L50.9902 53.8745C50.4831 54.3814 49.6603 54.3815 49.1533 53.8745L42.7432 47.4644C41.205 45.9266 41.2051 43.4372 42.7432 41.8989C44.2809 40.3612 46.7697 40.3617 48.3076 41.8989L50.0723 43.6636L50.249 43.4868L51.8359 41.8989ZM55.5645 43.7358C55.0416 43.2135 54.1954 43.2133 53.6729 43.7358L50.9902 46.4185C50.4833 46.9253 49.6609 46.925 49.1543 46.4185H49.1533L46.4717 43.7358C45.9814 43.2461 45.2073 43.2154 44.6816 43.644L44.5801 43.7358C44.0576 44.2584 44.0576 45.1049 44.5801 45.6274L50.0723 51.1196L55.5645 45.6274C56.0542 45.1373 56.085 44.3628 55.6562 43.8374L55.5645 43.7358Z" fill="white" stroke="#01C2F1" stroke-width="0.5"/>
<path d="M31.0664 29.0601C31.7836 29.0601 32.3652 29.6416 32.3652 30.3589C32.3652 31.0761 31.7836 31.6577 31.0664 31.6577C30.3492 31.6577 29.7676 31.0761 29.7676 30.3589C29.7676 29.6416 30.3491 29.0601 31.0664 29.0601Z" fill="white" stroke="#01C2F1" stroke-width="0.5"/>
</svg>
