<svg width="101" height="100" viewBox="0 0 101 100" fill="none" xmlns="http://www.w3.org/2000/svg">
<ellipse cx="50.0404" cy="50" rx="50.0404" ry="50" fill="#01C2F1"/>
<path d="M63.8846 24.2395C64.6044 24.2397 65.2213 24.7532 65.3563 25.4543C65.3745 25.5484 65.3835 25.3118 65.3856 27.7786C65.3877 30.2267 65.3837 35.3248 65.3837 46.05V46.4524L65.745 46.2737L68.4667 44.9241C69.4612 44.4306 70.6326 45.1558 70.6327 46.2678V70.762C70.6325 71.8742 69.4596 72.5972 68.4667 72.1047L55.0516 65.4534L54.7528 65.3049L54.6942 65.6331L53.1141 74.5237C52.9868 75.2392 52.3642 75.7599 51.6376 75.76H44.6385C43.7131 75.7598 43.0077 74.9274 43.16 74.0139L44.5858 65.4573L44.6249 65.2229L44.3934 65.1721C42.6773 64.7921 41.3897 63.2586 41.3895 61.4309V58.7307H21.7782C20.9501 58.7307 20.2783 58.0598 20.2782 57.2317V25.7395C20.2782 24.9281 20.9339 24.2458 21.7684 24.2405H21.9003C21.9837 24.2405 22.1055 24.2395 22.2626 24.2395H63.8846ZM47.6239 65.4719L46.4579 72.47L46.4091 72.761H50.3807L50.4178 72.5549L51.662 65.5569L51.7137 65.2629H47.6591L47.6239 65.4719ZM67.2723 48.8635L56.6581 54.1272L56.5194 54.1956V62.8333L56.6581 62.9016L67.2723 68.1653L67.6337 68.344V48.6848L67.2723 48.8635ZM45.2225 54.7659C44.7629 54.7659 44.3885 55.1392 44.3885 55.5989V61.4309C44.3887 61.8904 44.763 62.2639 45.2225 62.2639H53.5204V54.7659H45.2225ZM61.9969 28.7903L43.6014 40.9856C43.0982 41.3193 42.4438 41.3185 41.9413 40.9836L23.6659 28.8L23.2772 28.5413V55.7317H41.3856L41.3925 55.4895C41.4508 53.4271 43.1466 51.7659 45.2225 51.7659H54.6688L54.7206 51.7405L62.246 48.009L62.3846 47.9397V28.5325L61.9969 28.7903ZM27.4178 27.6965L42.6366 37.843L42.7753 37.9348L42.9139 37.843L58.2177 27.6975L58.9091 27.2385H26.7303L27.4178 27.6965Z" fill="white" stroke="#01C2F1" stroke-width="0.5"/>
<path d="M77.3975 49.3254C78.1559 48.9936 79.0402 49.3402 79.3721 50.0989C79.7038 50.8574 79.358 51.7415 78.5996 52.0735L76.7324 52.8899C75.9747 53.2215 75.0901 52.8765 74.7578 52.1174C74.4258 51.3588 74.7725 50.4738 75.5312 50.1418L77.3975 49.3254Z" fill="white" stroke="#01C2F1" stroke-width="0.5"/>
<path d="M74.7578 64.9116C75.0897 64.1532 75.9738 63.8076 76.7324 64.1392L78.5996 64.9556C79.358 65.2875 79.7037 66.1716 79.3721 66.9302V66.9312C79.0402 67.6895 78.1559 68.0353 77.3975 67.7036L75.5312 66.8872C74.7726 66.5554 74.4262 65.6713 74.7578 64.9126V64.9116Z" fill="white" stroke="#01C2F1" stroke-width="0.5"/>
<path d="M76.1318 57.0151H77.998C78.826 57.0153 79.4971 57.6871 79.4971 58.5151C79.4968 59.343 78.8259 60.014 77.998 60.0142H76.1318C75.3038 60.0142 74.6321 59.3431 74.6318 58.5151C74.6318 57.7386 75.2222 57.0996 75.9785 57.0229L76.1318 57.0151Z" fill="white" stroke="#01C2F1" stroke-width="0.5"/>
</svg>
