<svg width="44" height="44" viewBox="0 0 44 44" fill="none" xmlns="http://www.w3.org/2000/svg">
<rect width="43.8031" height="43.8031" rx="21.9016" fill="#01C2F1"/>
<g clip-path="url(#clip0_2_48)">
<path d="M32.3303 16.5521C32.3407 16.7831 32.3459 17.0153 32.3459 17.2484C32.3459 24.36 26.9324 32.5599 17.035 32.5599C13.9957 32.5599 11.1667 31.669 8.78517 30.142C9.20671 30.1919 9.63451 30.2174 10.0691 30.2174C12.5906 30.2174 14.9106 29.3572 16.7529 27.9135C14.3975 27.8703 12.4105 26.3143 11.7256 24.1763C12.0545 24.2393 12.3913 24.2731 12.7384 24.2731C13.2286 24.2731 13.7042 24.2071 14.156 24.0842C11.6944 23.5897 9.83901 21.4149 9.83901 18.8076C9.83901 18.7847 9.83901 18.7623 9.83958 18.7399C10.565 19.1427 11.3946 19.3847 12.2772 19.4128C10.8331 18.448 9.88326 16.8008 9.88326 14.9335C9.88326 13.9473 10.1481 13.023 10.6118 12.2283C13.266 15.4841 17.2306 17.6262 21.7032 17.851C21.6116 17.457 21.5637 17.0464 21.5637 16.6244C21.5637 13.6527 23.9732 11.2432 26.9449 11.2432C28.4937 11.2432 29.8915 11.8968 30.873 12.9423C32.0992 12.7014 33.2504 12.2533 34.2901 11.6366C33.8884 12.8934 33.0359 13.9478 31.9243 14.6139C33.013 14.4838 34.0508 14.1945 35.0156 13.7667C34.2943 14.8456 33.3816 15.7933 32.3303 16.5521Z" fill="white"/>
</g>
<defs>
<clipPath id="clip0_2_48">
<rect width="26.2819" height="26.2819" fill="white" transform="translate(8.76064 8.76074)"/>
</clipPath>
</defs>
</svg>
