<svg width="44" height="44" viewBox="0 0 44 44" fill="none" xmlns="http://www.w3.org/2000/svg">
<rect width="43.8031" height="43.8031" rx="21.9016" fill="#01C2F1"/>
<g clip-path="url(#clip0_2_55)">
<path fill-rule="evenodd" clip-rule="evenodd" d="M19.2582 25.2997V17.9252C21.8762 19.1571 23.9037 20.3471 26.3018 21.6301C24.3239 22.727 21.8762 23.9577 19.2582 25.2997ZM33.848 14.2576C33.3964 13.6626 32.6268 13.1995 31.8073 13.0462C29.3988 12.5888 14.3731 12.5875 11.9659 13.0462C11.3088 13.1693 10.7237 13.4671 10.221 13.9297C8.10313 15.8955 8.76678 26.4372 9.27728 28.1448C9.49195 28.8839 9.76947 29.4169 10.119 29.7668C10.5692 30.2294 11.1858 30.548 11.8939 30.6908C13.877 31.101 24.0935 31.3304 31.7654 30.7524C32.4723 30.6292 33.098 30.3004 33.5914 29.8182C35.5497 27.8603 35.4162 16.7266 33.848 14.2576Z" fill="white"/>
</g>
<defs>
<clipPath id="clip0_2_55">
<rect width="26.2819" height="26.2819" fill="white" transform="translate(8.76064 8.76074)"/>
</clipPath>
</defs>
</svg>
